# xmcd
#
# Track frame offsets: 
#        150
#        22066
#        52605
#        77419
#        92811
#        110482
#        123600
#        141299
#        161107
#        182789
#        197387
#        209396
#        231300
#        251598
#        267615
#        290026
#
# Disc length: 4062 seconds
#
# Revision: 1
# Processed by: cddbd v1.5.2PL0 Copyright (c) Steve Scherf et al.
# Submitted via: ExactAudioCopy v0.99pb4
#
DISCID=ec0fdc10
DTITLE=Γιάννης Λεμπέσης - 48 "αδέσποτα" ρεμπέτικα και παραδοσιακά τραγ
DTITLE=ούδια
DYEAR=2000
DGENRE=Rebetika
TTITLE0=Τα μαλλιά σου τα πλεμμένα
TTITLE1=Γιωργίτσα
TTITLE2=Μπαγλαμάδες
TTITLE3=Μωρή Ντουντού
TTITLE4=Η τράτα
TTITLE5=Αντριάννα μου γλυκειά
TTITLE6=Τον άλλο μήνα
TTITLE7=Τζιβαέρι
TTITLE8=Πότε μαύρα - πότε άσπρα
TTITLE9=Από λίγο - λίγο
TTITLE10=Μπάτσοι και χωροφυλάκοι
TTITLE11=Μελαχροινό με τις ελιές
TTITLE12=Συρτός πολίτικος
TTITLE13=Ολμάζ
TTITLE14=Ησουνα ξυπόλυτη
TTITLE15=Σμύρνη και κορδελιό
EXTD=
EXTT0=
EXTT1=
EXTT2=
EXTT3=
EXTT4=
EXTT5=
EXTT6=
EXTT7=
EXTT8=
EXTT9=
EXTT10=
EXTT11=
EXTT12=
EXTT13=
EXTT14=
EXTT15=
PLAYORDER=
